<svg width="30" height="30" fill="none" xmlns="http://www.w3.org/2000/svg"><path d="M21.7209 0H8.2787C3.7138 0 0 3.714 0 8.279V21.721C0 26.2862 3.7138 30 8.2787 30H21.721C26.2862 30 30 26.286 30 21.7211V8.2789C30.0002 3.714 26.2862 0 21.7209 0Zm5.6175 21.7211c0 3.0974-2.5199 5.6172-5.6173 5.6172H8.2787c-3.0972.0001-5.617-2.5198-5.617-5.6172V8.2789c0-3.0972 2.5198-5.6172 5.617-5.6172H21.721c3.0974 0 5.6174 2.52 5.6174 5.6172v13.4422h.0001Z" fill="#21243D"/><path d="M15 7.2701c-4.2625 0-7.7302 3.4678-7.7302 7.7303 0 4.2623 3.4677 7.7299 7.7302 7.7299s7.7303-3.4676 7.7303-7.7299c0-4.2625-3.4678-7.7303-7.7303-7.7303Zm0 12.7982c-2.7946 0-5.0685-2.2734-5.0685-5.0681 0-2.7948 2.2737-5.0685 5.0685-5.0685 2.7948 0 5.0685 2.2737 5.0685 5.0685 0 2.7947-2.2738 5.0681-5.0685 5.0681ZM23.0545 5.0132c-.5128 0-1.0166.2076-1.3788.5714-.3639.362-.5732.866-.5732 1.3805 0 .513.2094 1.0168.5732 1.3806.362.362.866.5714 1.3788.5714.5146 0 1.0168-.2094 1.3805-.5714.3638-.3638.5714-.8677.5714-1.3806 0-.5146-.2076-1.0185-.5714-1.3805-.362-.3638-.8659-.5714-1.3805-.5714Z" fill="#21243D"/></svg>