<svg width="30" height="30" fill="none" xmlns="http://www.w3.org/2000/svg"><path d="M25.6055 0H4.3945C1.9715 0 0 1.9716 0 4.3945v21.211C0 28.0284 1.9716 30 4.3945 30h21.211C28.0284 30 30 28.0284 30 25.6055V4.3945C30 1.9715 28.0284 0 25.6055 0Zm-15 23.7891H7.0898V11.4844h3.5157v12.3047Zm0-14.0625H7.0898V6.2109h3.5157v3.5157ZM22.9102 23.789h-3.5157v-7.0313c0-.9691-.7887-1.7578-1.7578-1.7578-.9691 0-1.7578.7887-1.7578 1.7578v7.0313h-3.5156V11.4844h3.5156v.6626c.921-.2863 1.5193-.6626 2.6367-.6626 2.3843.0025 4.3946 2.1414 4.3946 4.6692v7.6355Z" fill="#21243D"/></svg>