<svg width="37" height="30" fill="none" xmlns="http://www.w3.org/2000/svg"><path d="M36.9231 3.5515c-1.3731.6024-2.8362 1.0016-4.3616 1.1954 1.5693-.9369 2.767-2.4092 3.33-4.1838-1.463.8723-3.0784 1.4884-4.8 1.8323C29.7023.9162 27.7223 0 25.5623 0c-4.1908 0-7.5646 3.4015-7.5646 7.5715 0 .6.0508 1.177.1754 1.7262C11.88 8.9907 6.3115 5.9747 2.5708 1.38c-.6531 1.133-1.0362 2.43-1.0362 3.8262 0 2.6215 1.35 4.9453 3.3623 6.2907-1.2161-.0231-2.4092-.3761-3.42-.9323v.0831c0 3.6785 2.6239 6.7338 6.0646 7.4377-.6161.1684-1.2877.2492-1.9846.2492-.4846 0-.9738-.0277-1.433-.1292.9807 2.9977 3.7638 5.2015 7.073 5.2731-2.5754 2.0146-5.8454 3.2284-9.3854 3.2284-.6207 0-1.2161-.0277-1.8115-.1038C3.353 28.7654 7.327 30 11.6123 30c13.9292 0 21.5446-11.5385 21.5446-21.54 0-.3346-.0115-.6577-.0277-.9785 1.5023-1.0661 2.7646-2.3976 3.7939-3.93Z" fill="#21243D"/></svg>